<svg width="240" height="70" viewBox="0 0 240 70" fill="none" xmlns="http://www.w3.org/2000/svg">
<path d="M78 36.0019C78 32.2701 80.3946 29.9979 83.3057 29.9979C84.7137 29.9245 86.0965 30.3957 87.1715 31.3155L86.5063 32.7514C86.1234 32.3471 85.6614 32.0276 85.1494 31.813C84.6375 31.5984 84.0869 31.4934 83.5326 31.5048C81.5997 31.5048 79.6747 33.0117 79.6747 36.0019C79.6747 38.992 81.6154 40.4753 83.5874 40.4753C84.2164 40.4962 84.8418 40.3729 85.4166 40.1146C85.9914 39.8563 86.5004 39.4698 86.9054 38.9841L87.5628 40.3411C87.0365 40.91 86.3913 41.3538 85.674 41.6403C84.9567 41.9269 84.1852 42.049 83.4152 41.9979C80.465 41.9979 78 39.7258 78 36.0019Z" fill="#1E3932"/>
<path d="M90.294 36.0036C90.2656 35.2309 90.392 34.4603 90.6657 33.738C90.9394 33.0157 91.3547 32.3565 91.8869 31.7997C92.4191 31.2429 93.0572 30.8 93.763 30.4975C94.4688 30.195 95.2279 30.0391 95.9948 30.0391C96.7618 30.0391 97.5208 30.195 98.2267 30.4975C98.9325 30.8 99.5705 31.2429 100.103 31.7997C100.635 32.3565 101.05 33.0157 101.324 33.738C101.598 34.4603 101.724 35.2309 101.696 36.0036C101.724 36.7763 101.598 37.5468 101.324 38.2691C101.05 38.9914 100.635 39.6507 100.103 40.2074C99.5705 40.7642 98.9325 41.2071 98.2267 41.5096C97.5208 41.8121 96.7618 41.968 95.9948 41.968C95.2279 41.968 94.4688 41.8121 93.763 41.5096C93.0572 41.2071 92.4191 40.7642 91.8869 40.2074C91.3547 39.6507 90.9394 38.9914 90.6657 38.2691C90.392 37.5468 90.2656 36.7763 90.294 36.0036ZM99.9897 36.0036C99.9897 32.9819 97.9473 31.4907 95.9831 31.4907C94.0189 31.4907 91.9999 32.9819 91.9999 36.0036C91.9999 39.0253 94.0267 40.5085 95.9831 40.5085C97.9395 40.5085 99.9897 39.0174 99.9897 36.0036Z" fill="#1E3932"/>
<path d="M107.424 31.6252V35.2859H111.079V36.635H107.424V41.7554H105.82V30.2445H111.767V31.6252H107.424Z" fill="#1E3932"/>
<path d="M118.254 31.6252V35.2859H121.901V36.635H118.254V41.7554H116.642V30.2445H122.605V31.6252H118.254Z" fill="#1E3932"/>
<path d="M129.077 31.6252V35.1281H132.904V36.4694H129.077V40.4141H133.561V41.7554H127.473V30.2445H133.561V31.6252H129.077Z" fill="#1E3932"/>
<path d="M140.792 31.6252V35.1281H144.618V36.4694H140.792V40.4141H145.299V41.7554H139.188V30.2445H145.299V31.6252H140.792Z" fill="#1E3932"/>
<path d="M164.081 38.4812H159.8L158.689 41.7554H157.038L161.076 30.2445H162.828L166.866 41.7554H165.129L164.081 38.4812ZM163.658 37.2346L161.952 32.1696L160.168 37.2346H163.658Z" fill="#1E3932"/>
<path d="M176.124 31.6252H173.095V41.7554H171.53V31.6252H168.518V30.2445H176.163L176.124 31.6252Z" fill="#1E3932"/>
<path d="M196.314 30.2445V41.7554H194.702V36.4536H188.997V41.7554H187.385V30.2445H188.997V35.1439H194.702V30.2445H196.314Z" fill="#1E3932"/>
<path d="M200.078 36.0036C200.049 35.2309 200.176 34.4603 200.449 33.738C200.723 33.0157 201.138 32.3565 201.671 31.7997C202.203 31.2429 202.841 30.8 203.547 30.4975C204.253 30.195 205.012 30.0391 205.779 30.0391C206.545 30.0391 207.305 30.195 208.01 30.4975C208.716 30.8 209.354 31.2429 209.886 31.7997C210.419 32.3565 210.834 33.0157 211.108 33.738C211.381 34.4603 211.508 35.2309 211.479 36.0036C211.508 36.7763 211.381 37.5468 211.108 38.2691C210.834 38.9914 210.419 39.6507 209.886 40.2074C209.354 40.7642 208.716 41.2071 208.01 41.5096C207.305 41.8121 206.545 41.968 205.779 41.968C205.012 41.968 204.253 41.8121 203.547 41.5096C202.841 41.2071 202.203 40.7642 201.671 40.2074C201.138 39.6507 200.723 38.9914 200.449 38.2691C200.176 37.5468 200.049 36.7763 200.078 36.0036ZM209.781 36.0036C209.781 32.9819 207.739 31.4907 205.775 31.4907C203.81 31.4907 201.784 32.9819 201.784 36.0036C201.784 39.0253 203.81 40.5085 205.775 40.5085C207.739 40.5085 209.813 39.0174 209.813 36.0036H209.781Z" fill="#1E3932"/>
<path d="M226.238 41.7554L225.119 33.1558L221.809 41.7554H220.753L217.294 33.0847L216.269 41.7632H214.704L216.167 30.2445H217.732L221.308 39.1597L224.853 30.2445H226.418L227.858 41.7554H226.238Z" fill="#1E3932"/>
<path d="M233.524 31.6252V35.1281H237.358V36.4694H233.524V40.4141H238V41.7554H231.919V30.2445H238V31.6252H233.524Z" fill="#1E3932"/>
<path d="M60.4748 58C62.9431 58 65 59.9541 65 62.4738C65 65.045 62.9431 66.9991 60.4748 66.9991C58.0064 66.9991 56.0009 65.045 56.0009 62.4738C55.9495 59.9541 58.0064 58 60.4748 58ZM60.4748 66.3306C62.5317 66.3306 64.1772 64.685 64.1772 62.4738C64.1772 60.314 62.5317 58.6171 60.4748 58.6171C58.4178 58.6171 56.7723 60.2626 56.7723 62.4738C56.7723 64.685 58.4178 66.3306 60.4748 66.3306ZM58.7778 59.8512H60.7833C62.0175 59.8512 62.6345 60.3655 62.6345 61.3425C62.6345 62.3195 62.0175 62.6795 61.2461 62.7824L62.7374 65.0964H61.8632L60.4233 62.8338H59.5491V65.0964H58.7264V59.8512H58.7778ZM59.5491 62.2167H60.3719C61.0918 62.2167 61.7603 62.1653 61.7603 61.3425C61.7603 60.6226 61.1433 60.5197 60.5776 60.5197H59.5491V62.2167Z" fill="#006241"/>
<path d="M63 35C63 51.5527 49.5748 65 32.9857 65C16.4252 64.9715 3 51.5527 3 35C3 18.4473 16.4252 5 33.0143 5C49.5748 5 63 18.4188 63 35Z" fill="white"/>
<path d="M35.9887 17.963C35.7325 17.906 34.4517 17.7066 32.9716 17.7066C31.4916 17.7066 30.2107 17.906 29.9546 17.963C29.8123 17.9915 29.7553 17.849 29.8692 17.7635C29.983 17.6781 32.9716 15.3989 32.9716 15.3989C32.9716 15.3989 35.9602 17.6781 36.0741 17.7635C36.1879 17.849 36.131 17.9915 35.9887 17.963ZM30.78 32.8063C30.78 32.8063 30.6092 32.8632 30.5808 33.0057C31.2069 33.49 31.6339 34.6011 32.9432 34.6011C34.2525 34.6011 34.6794 33.49 35.3056 33.0057C35.2771 32.8632 35.1064 32.8063 35.1064 32.8063C35.1064 32.8063 34.2809 33.0057 32.9432 33.0057C31.6054 33.0057 30.78 32.8063 30.78 32.8063ZM32.9716 30.9544C32.6016 30.9544 32.5162 30.812 32.2885 30.812C32.0608 30.812 31.6054 31.0114 31.4916 31.1823C31.4916 31.2678 31.52 31.3533 31.6054 31.4103C32.1462 31.4957 32.3739 31.7806 33.0001 31.7806C33.6263 31.7806 33.854 31.4957 34.3948 31.4103C34.4517 31.3533 34.4802 31.2678 34.5086 31.1823C34.4232 31.0114 33.9394 30.812 33.7117 30.812C33.3986 30.812 33.3132 30.9544 32.9716 30.9544ZM62.8861 36.6239C62.8577 37.3362 62.7723 38.0484 62.6869 38.7607C59.2998 39.3305 58.0759 36.3105 54.6034 36.453C54.8027 37.1937 54.9735 37.9345 55.1158 38.7037C57.9905 38.7037 59.129 41.3818 62.3169 40.9829C62.1461 41.8091 61.9469 42.6068 61.7192 43.4046C59.186 43.661 58.3036 41.1538 55.4004 41.2108C55.4289 41.6382 55.4289 42.037 55.4289 42.4644C55.4289 42.6923 55.4289 42.9202 55.4289 43.1766C57.9051 43.1481 58.7306 45.4558 61.093 45.3419C60.8084 46.1396 60.4668 46.9373 60.0968 47.7066C58.389 47.6211 57.8198 45.4273 55.2296 45.5983C55.1442 46.1681 55.0588 46.7094 54.945 47.2507C57.1936 47.0798 57.6774 49.1595 59.2998 49.3305C58.9013 50.0712 58.4459 50.812 57.9905 51.5242C57.0228 51.0114 56.1974 49.4729 54.4042 49.359C54.6034 48.7892 54.7458 48.2194 54.8881 47.6211C53.2942 47.6211 51.4441 46.9943 49.9071 45.5983C50.3909 42.7493 45.9792 39.8433 45.9792 37.7635C45.9792 35.5128 47.1177 34.2593 47.1177 31.2108C47.1177 28.9316 46.0076 26.4815 44.3568 24.8006C44.0437 24.4872 43.7022 24.2023 43.3321 23.9744C44.8407 25.8547 46.0361 28.1054 46.0361 30.6695C46.0361 33.547 44.6984 35.057 44.6984 37.7066C44.6984 40.3561 48.5693 42.6638 48.5693 45.3989C48.5693 46.4815 48.2278 47.5356 47.0892 49.5869C48.8255 51.3248 51.1025 52.265 52.5541 52.265C53.038 52.265 53.2942 52.1225 53.4649 51.7521C53.6072 51.4387 53.7496 51.0969 53.8919 50.7835C55.4573 50.8405 56.1974 52.265 57.0513 52.8632C56.5674 53.5185 56.0835 54.1168 55.5427 54.7151C54.945 54.0598 54.1765 52.9772 53.0095 52.6638C52.8103 53.0627 52.5826 53.4615 52.3549 53.8604C53.3511 54.1168 54.0342 55.1424 54.5465 55.7977C53.9773 56.396 53.3795 56.9373 52.7818 57.4786C52.4118 56.8803 51.8141 56.1396 51.131 55.7122C50.8748 56.0541 50.6186 56.3675 50.3625 56.6809C50.9317 57.0798 51.4441 57.7635 51.7572 58.3333C51.0456 58.9031 50.3055 59.4444 49.5655 59.9573C49.1955 56.9088 45.0399 54.8291 46.15 51.2963C45.7799 51.9231 45.353 52.6923 45.353 53.6325C45.353 56.1966 48.0854 58.2194 48.2847 60.755C47.7154 61.0969 47.1462 61.4103 46.5484 61.7236C46.4631 58.9316 43.5598 55.8832 43.5598 53.5755C43.5598 51.0114 46.9185 48.4473 46.9185 45.4273C46.9185 42.4074 43.0475 40.2991 43.0475 37.6496C43.0475 35 44.6984 33.4615 44.6984 30.0712C44.6984 27.5926 43.5314 25.057 41.6813 23.4615C41.3682 23.1766 41.0551 22.9487 40.6566 22.7493C42.3929 24.8291 43.3891 26.6809 43.3891 29.5299C43.3891 32.7208 41.5105 34.5157 41.5105 37.6211C41.5105 40.755 45.2961 42.4929 45.2961 45.3989C45.2961 48.3048 41.7667 50.7835 41.7667 53.7749C41.7667 56.51 44.8691 59.2165 44.9261 62.4644C44.243 62.7493 43.5598 63.0342 42.8483 63.2906C43.2467 60.0142 39.7458 56.6524 39.7458 53.9744C39.7458 51.0684 43.4175 48.5613 43.4175 45.3989C43.4175 42.265 39.6889 40.7835 39.6889 37.5641C39.6889 34.3447 41.9659 32.5499 41.9659 28.9886C41.9659 26.1966 40.5997 23.7179 38.5788 22.151C38.5504 22.1225 38.4934 22.094 38.465 22.0655C38.2657 21.9231 38.1234 22.094 38.2657 22.265C39.6889 24.0313 40.4289 25.8262 40.4289 28.4758C40.4289 31.7521 37.8103 34.4017 37.8103 37.5641C37.8103 41.2963 41.3397 42.3504 41.3397 45.4273C41.3397 48.4758 37.5542 50.9259 37.5542 54.1738C37.5542 57.1937 41.1405 60.5271 40.5143 64.0028C39.8027 64.2023 39.0627 64.3447 38.3227 64.4872C39.0058 60.1567 35.4764 57.0513 35.4764 54.2023C35.4764 51.1254 39.3758 48.3903 39.3758 45.3989C39.3758 42.5783 36.558 41.6382 36.1879 38.7607C36.131 38.3618 35.8179 38.0769 35.391 38.1339C34.8217 38.2479 34.0817 38.6182 32.9432 38.6182C31.8047 38.6182 31.0646 38.2479 30.4954 38.1339C30.0684 38.0484 29.7553 38.3618 29.6984 38.7607C29.3284 41.6667 26.5106 42.5783 26.5106 45.3989C26.5106 48.3903 30.41 51.1254 30.41 54.2023C30.41 57.0228 26.909 60.1567 27.5637 64.4872C26.8237 64.3447 26.1121 64.2023 25.372 64.0028C24.7459 60.5271 28.3322 57.1937 28.3322 54.1738C28.3322 50.9259 24.5466 48.4758 24.5466 45.4273C24.5466 42.3789 28.076 41.2963 28.076 37.5641C28.076 34.4017 25.4574 31.7521 25.4574 28.4758C25.4574 25.8262 26.2259 24.0313 27.6206 22.265C27.7629 22.094 27.5922 21.9231 27.4214 22.0655C27.3929 22.094 27.336 22.1225 27.3075 22.151C25.3151 23.6895 23.9204 26.1966 23.9204 28.9886C23.9204 32.5499 26.1975 34.3447 26.1975 37.5641C26.1975 40.7835 22.4688 42.265 22.4688 45.3989C22.4688 48.5328 26.1405 51.0399 26.1405 53.9744C26.1405 56.6524 22.6396 60.0142 23.0381 63.2906C22.3265 63.0342 21.6434 62.7778 20.9603 62.4644C21.0172 59.2165 24.1197 56.51 24.1197 53.7749C24.1197 50.7835 20.5903 48.3048 20.5903 45.3989C20.5903 42.4929 24.3758 40.7265 24.3758 37.6211C24.3758 34.4872 22.4973 32.7208 22.4973 29.5299C22.4973 26.6809 23.4935 24.8006 25.2297 22.7493C24.8597 22.9487 24.5182 23.1766 24.2051 23.4615C22.4119 25.057 21.2449 27.5926 21.2449 30.0712C21.2449 33.4615 22.8958 35 22.8958 37.6496C22.8958 40.2991 19.0248 42.4074 19.0248 45.4273C19.0248 48.4473 22.3834 51.0114 22.3834 53.5755C22.3834 55.8832 19.5087 58.9316 19.3948 61.7236C18.7971 61.4103 18.2279 61.0969 17.6586 60.755C17.8863 58.2194 20.5903 56.1966 20.5903 53.6325C20.5903 52.6923 20.1633 51.9231 19.7933 51.2963C20.9034 54.8291 16.7478 56.9088 16.3778 59.9573C15.6093 59.4444 14.8977 58.9031 14.1861 58.3333C14.4992 57.7635 15.0115 57.0798 15.5808 56.6809C15.3246 56.3675 15.0685 56.0256 14.8123 55.7122C14.1577 56.1111 13.5599 56.8803 13.1615 57.4786C12.5637 56.9373 11.966 56.3675 11.3968 55.7977C11.9091 55.1424 12.5922 54.1453 13.5884 53.8604C13.3607 53.4615 13.133 53.0912 12.9338 52.6638C11.7952 52.9772 10.9983 54.0598 10.4006 54.7151C9.85976 54.1168 9.37589 53.49 8.89202 52.8632C9.77437 52.2934 10.4859 50.8689 12.0514 50.7835C12.1937 51.1254 12.3076 51.4387 12.4783 51.7521C12.6491 52.1225 12.9053 52.265 13.3892 52.265C14.8408 52.265 17.1178 51.3248 18.854 49.5869C17.7155 47.5356 17.374 46.4815 17.374 45.3989C17.374 42.6638 21.2449 40.3846 21.2449 37.7066C21.2449 35.057 19.9072 33.547 19.9072 30.6695C19.9072 28.0769 21.0741 25.8547 22.6111 23.9744C22.2411 24.2023 21.8996 24.4872 21.5865 24.8006C19.9356 26.4815 18.8256 28.9316 18.8256 31.2108C18.8256 34.2593 19.9641 35.5128 19.9641 37.7635C19.9641 39.8433 15.5523 42.7493 16.0647 45.5983C14.5277 46.9943 12.6776 47.6211 11.0837 47.6211C11.226 48.2194 11.3968 48.7892 11.5675 49.359C9.74591 49.4444 8.92049 51.0114 7.98121 51.5242C7.49734 50.812 7.0704 50.0712 6.67192 49.3305C8.2943 49.1595 8.77817 47.0798 11.0267 47.2507C10.9129 46.7094 10.799 46.1396 10.7421 45.5983C8.15199 45.4273 7.55427 47.6211 5.87496 47.7066C5.50494 46.9373 5.19185 46.1396 4.87875 45.3419C7.24118 45.4558 8.0666 43.1481 10.5429 43.1766C10.5429 42.9487 10.5429 42.7208 10.5429 42.4644C10.5429 42.037 10.5429 41.6097 10.5713 41.2108C7.66812 41.1538 6.75731 43.661 4.25257 43.4046C4.02487 42.6068 3.82563 41.8091 3.65485 40.9829C6.84269 41.3818 7.98121 38.7037 10.856 38.7037C10.9983 37.9345 11.1406 37.1937 11.3683 36.453C7.89582 36.3105 6.67192 39.3305 3.28483 38.7607C3.19944 38.0484 3.14252 37.3362 3.08559 36.6239C7.01347 37.0798 8.49354 33.8319 12.1083 34.2308C12.4499 33.3761 12.8484 32.5499 13.2753 31.7521C8.77817 30.9544 7.24118 34.7151 3.05713 34.1453C3.45561 17.963 16.6909 5 32.9716 5C49.224 5 62.4592 17.963 62.9146 34.1453C58.7306 34.7151 57.1936 30.9544 52.6964 31.7521C53.1518 32.5499 53.5219 33.3761 53.8634 34.2308C57.4497 33.8319 58.9298 37.0798 62.8861 36.6239ZM20.0779 24.0598C17.8863 23.1481 15.2108 23.3761 12.9338 24.8291C12.5922 22.6923 11.4252 20.812 9.77437 19.6724C9.54667 19.5014 9.31897 19.6724 9.31897 19.9288C9.66052 24.4302 7.04194 28.3048 3.82563 31.7521C7.15579 32.7493 9.97361 28.4758 14.2715 29.9573C15.837 27.6496 17.8009 25.6553 20.0779 24.0598ZM32.9716 21.3533C30.1823 21.3533 27.8483 22.9202 27.2506 24.9715C27.1937 25.114 27.2791 25.2279 27.4498 25.1424C27.9622 24.9145 28.5314 24.8006 29.1291 24.8006C30.2677 24.8006 31.2639 25.2279 31.8616 25.9402C32.1178 26.7949 32.1462 28.0484 31.8616 28.7607C31.4062 28.6467 31.2354 28.3048 30.78 28.3048C30.3246 28.3048 29.983 28.6182 29.1861 28.6182C28.4176 28.6182 28.3322 28.2479 27.8199 28.2479C27.2221 28.2479 27.1083 28.8746 27.1083 29.5584C27.1083 32.6638 29.9546 36.9373 33.0001 36.9373C36.0172 36.9373 38.8635 32.6638 38.8635 29.5584C38.8635 28.8746 38.7211 28.2764 38.095 28.1909C37.7819 28.4188 37.4972 28.6182 36.7857 28.6182C36.0172 28.6182 35.7895 28.3048 35.3341 28.3048C34.7933 28.3048 34.8502 29.4729 34.1955 29.5299C33.7686 28.4758 33.7401 27.1368 34.1102 25.9402C34.7079 25.2279 35.7041 24.8006 36.8426 24.8006C37.4688 24.8006 38.038 24.9145 38.5219 25.1424C38.6927 25.2279 38.7781 25.114 38.7211 24.9715C38.0665 22.9202 35.7325 21.3533 32.9716 21.3533ZM37.3834 25.7977C36.7287 25.7977 35.9318 25.9972 35.4479 26.5385C35.391 26.6809 35.391 26.9088 35.4764 27.0513C36.6718 26.6239 37.7534 26.6239 38.2657 27.1937C38.5504 26.9373 38.6358 26.7094 38.6358 26.453C38.6358 26.0826 38.2088 25.7977 37.3834 25.7977ZM27.6775 27.2222C28.2468 26.6239 29.4992 26.6524 30.78 27.1368C30.8369 26.51 29.6984 25.7977 28.5599 25.7977C27.7345 25.7977 27.336 26.0826 27.336 26.4815C27.3075 26.7379 27.3929 26.9658 27.6775 27.2222ZM46.8331 16.7094C44.6414 16.8519 42.7344 17.6211 41.1974 18.8746C41.8521 17.0228 42.6775 15.3989 43.7306 13.8034C40.9413 14.0883 38.6073 15.114 36.8995 16.8803L35.5618 13.3761L38.5219 10.755L34.5656 10.4701L32.9716 6.76638L31.3777 10.4701L27.4214 10.755L30.3815 13.3761L29.0438 16.8803C27.336 15.1425 25.002 14.1168 22.2127 13.8034C23.2658 15.3704 24.0912 16.9943 24.7459 18.8746C23.2089 17.6211 21.3018 16.8519 19.1102 16.7094C20.4195 18.4188 21.5865 20.2137 22.4688 22.151C22.5542 22.3789 22.7819 22.4359 23.0096 22.3219C26.0267 20.8405 29.4138 19.9858 33.0001 19.9858C36.5864 19.9858 39.9735 20.8405 42.9906 22.3219C43.2183 22.4359 43.4175 22.3504 43.5314 22.151C44.3568 20.2137 45.5238 18.4188 46.8331 16.7094ZM51.6148 29.9573C55.9127 28.4758 58.759 32.7493 62.0892 31.7521C58.8729 28.3333 56.2543 24.4302 56.5958 19.9288C56.6243 19.6724 56.3681 19.5014 56.1689 19.6724C54.5181 20.812 53.3795 22.6923 53.0095 24.8291C50.7325 23.3476 48.057 23.1481 45.8653 24.0598C48.1139 25.6553 50.0778 27.6496 51.6148 29.9573Z" fill="#006241"/>
</svg>
